<svg width="742" height="703" viewBox="0 0 742 703" fill="none" xmlns="http://www.w3.org/2000/svg">
<g clip-path="url(#clip0_836_237)">
<g style="mix-blend-mode:soft-light">
<path d="M287.629 124.587C283.908 124.587 280.878 127.461 280.878 130.992C280.878 133.976 283.052 136.475 285.983 137.178V215.852H289.276V137.178C292.207 136.475 294.381 133.976 294.381 130.992C294.381 127.461 291.351 124.587 287.629 124.587ZM287.629 134.273C285.719 134.273 284.171 132.804 284.171 130.992C284.171 129.18 285.719 127.711 287.629 127.711C289.539 127.711 291.087 129.18 291.087 130.992C291.087 132.804 289.539 134.273 287.629 134.273Z" fill="white"/>
</g>
<g style="mix-blend-mode:soft-light">
<path d="M315.409 152.254C311.687 152.254 308.657 155.128 308.657 158.659C308.657 161.643 310.831 164.142 313.762 164.845V215.836H317.055V164.845C319.986 164.142 322.16 161.643 322.16 158.659C322.16 155.128 319.13 152.254 315.409 152.254ZM315.409 161.94C313.498 161.94 311.951 160.471 311.951 158.659C311.951 156.847 313.498 155.378 315.409 155.378C317.319 155.378 318.867 156.847 318.867 158.659C318.867 160.471 317.319 161.94 315.409 161.94Z" fill="white"/>
</g>
<g style="mix-blend-mode:soft-light">
<path d="M343.204 124.587C339.483 124.587 336.453 127.461 336.453 130.992C336.453 133.976 338.627 136.475 341.558 137.178V215.852H344.851V137.178C347.782 136.475 349.956 133.976 349.956 130.992C349.956 127.461 346.926 124.587 343.204 124.587ZM343.204 134.273C341.294 134.273 339.746 132.804 339.746 130.992C339.746 129.18 341.294 127.711 343.204 127.711C345.115 127.711 346.662 129.18 346.662 130.992C346.662 132.804 345.115 134.273 343.204 134.273Z" fill="white"/>
</g>
<g style="mix-blend-mode:soft-light">
<path d="M371 152.254C367.279 152.254 364.249 155.128 364.249 158.659C364.249 161.643 366.423 164.142 369.354 164.845V215.836H372.647V164.845C375.578 164.142 377.752 161.643 377.752 158.659C377.752 155.128 374.722 152.254 371 152.254ZM371 161.94C369.09 161.94 367.542 160.471 367.542 158.659C367.542 156.847 369.09 155.378 371 155.378C372.911 155.378 374.458 156.847 374.458 158.659C374.458 160.471 372.911 161.94 371 161.94Z" fill="white"/>
</g>
<g style="mix-blend-mode:soft-light">
<path d="M398.795 124.587C395.074 124.587 392.044 127.461 392.044 130.992C392.044 133.976 394.218 136.475 397.149 137.178V215.852H400.442V137.178C403.373 136.475 405.547 133.976 405.547 130.992C405.547 127.461 402.517 124.587 398.795 124.587ZM398.795 134.273C396.885 134.273 395.337 132.804 395.337 130.992C395.337 129.18 396.885 127.711 398.795 127.711C400.705 127.711 402.253 129.18 402.253 130.992C402.253 132.804 400.705 134.273 398.795 134.273Z" fill="white"/>
</g>
<g style="mix-blend-mode:soft-light">
<path d="M426.591 152.254C422.87 152.254 419.84 155.128 419.84 158.659C419.84 161.643 422.013 164.142 424.945 164.845V215.836H428.238V164.845C431.169 164.142 433.342 161.643 433.342 158.659C433.342 155.128 430.313 152.254 426.591 152.254ZM426.591 161.94C424.681 161.94 423.133 160.471 423.133 158.659C423.133 156.847 424.681 155.378 426.591 155.378C428.501 155.378 430.049 156.847 430.049 158.659C430.049 160.471 428.501 161.94 426.591 161.94Z" fill="white"/>
</g>
<g style="mix-blend-mode:soft-light">
<path d="M454.37 124.587C450.649 124.587 447.619 127.461 447.619 130.992C447.619 133.976 449.793 136.475 452.724 137.178V215.852H456.017V137.178C458.948 136.475 461.122 133.976 461.122 130.992C461.122 127.461 458.092 124.587 454.37 124.587ZM454.37 134.273C452.46 134.273 450.912 132.804 450.912 130.992C450.912 129.18 452.46 127.711 454.37 127.711C456.281 127.711 457.828 129.18 457.828 130.992C457.828 132.804 456.281 134.273 454.37 134.273Z" fill="white"/>
</g>
<g style="mix-blend-mode:soft-light">
<path d="M285.983 485.852V564.525C283.052 565.228 280.878 567.728 280.878 570.711C280.878 574.242 283.908 577.117 287.629 577.117C291.351 577.117 294.381 574.242 294.381 570.711C294.381 567.728 292.207 565.228 289.276 564.525V485.852H285.983ZM291.087 570.696C291.087 572.508 289.539 573.977 287.629 573.977C285.719 573.977 284.171 572.508 284.171 570.696C284.171 568.884 285.719 567.415 287.629 567.415C289.539 567.415 291.087 568.884 291.087 570.696Z" fill="white"/>
</g>
<g style="mix-blend-mode:soft-light">
<path d="M313.762 485.852V536.843C310.831 537.546 308.657 540.045 308.657 543.029C308.657 546.56 311.687 549.434 315.409 549.434C319.13 549.434 322.16 546.56 322.16 543.029C322.16 540.045 319.986 537.546 317.055 536.843V485.852H313.762ZM318.867 543.029C318.867 544.841 317.319 546.31 315.409 546.31C313.498 546.31 311.951 544.841 311.951 543.029C311.951 541.217 313.498 539.748 315.409 539.748C317.319 539.748 318.867 541.217 318.867 543.029Z" fill="white"/>
</g>
<g style="mix-blend-mode:soft-light">
<path d="M341.558 485.852V564.525C338.627 565.228 336.453 567.728 336.453 570.711C336.453 574.242 339.483 577.117 343.204 577.117C346.926 577.117 349.956 574.242 349.956 570.711C349.956 567.728 347.782 565.228 344.851 564.525V485.852H341.558ZM346.662 570.696C346.662 572.508 345.115 573.977 343.204 573.977C341.294 573.977 339.746 572.508 339.746 570.696C339.746 568.884 341.294 567.415 343.204 567.415C345.115 567.415 346.662 568.884 346.662 570.696Z" fill="white"/>
</g>
<g style="mix-blend-mode:soft-light">
<path d="M369.354 485.852V536.843C366.423 537.546 364.249 540.045 364.249 543.029C364.249 546.56 367.279 549.434 371 549.434C374.722 549.434 377.752 546.56 377.752 543.029C377.752 540.045 375.578 537.546 372.647 536.843V485.852H369.354ZM374.458 543.029C374.458 544.841 372.911 546.31 371 546.31C369.09 546.31 367.542 544.841 367.542 543.029C367.542 541.217 369.09 539.748 371 539.748C372.911 539.748 374.458 541.217 374.458 543.029Z" fill="white"/>
</g>
<g style="mix-blend-mode:soft-light">
<path d="M397.149 485.852V564.525C394.218 565.228 392.044 567.728 392.044 570.711C392.044 574.242 395.074 577.117 398.795 577.117C402.517 577.117 405.547 574.242 405.547 570.711C405.547 567.728 403.373 565.228 400.442 564.525V485.852H397.149ZM402.253 570.696C402.253 572.508 400.705 573.977 398.795 573.977C396.885 573.977 395.337 572.508 395.337 570.696C395.337 568.884 396.885 567.415 398.795 567.415C400.705 567.415 402.253 568.884 402.253 570.696Z" fill="white"/>
</g>
<g style="mix-blend-mode:soft-light">
<path d="M424.945 485.852V536.843C422.013 537.546 419.84 540.045 419.84 543.029C419.84 546.56 422.87 549.434 426.591 549.434C430.313 549.434 433.342 546.56 433.342 543.029C433.342 540.045 431.169 537.546 428.238 536.843V485.852H424.945ZM430.049 543.029C430.049 544.841 428.501 546.31 426.591 546.31C424.681 546.31 423.133 544.841 423.133 543.029C423.133 541.217 424.681 539.748 426.591 539.748C428.501 539.748 430.049 541.217 430.049 543.029Z" fill="white"/>
</g>
<g style="mix-blend-mode:soft-light">
<path d="M456.017 564.509V485.836H452.724V564.509C449.793 565.212 447.619 567.712 447.619 570.696C447.619 574.226 450.649 577.101 454.37 577.101C458.092 577.101 461.122 574.226 461.122 570.696C461.122 567.712 458.948 565.212 456.017 564.509ZM454.37 573.977C452.46 573.977 450.912 572.508 450.912 570.696C450.912 568.884 452.46 567.415 454.37 567.415C456.281 567.415 457.828 568.884 457.828 570.696C457.828 572.508 456.281 573.977 454.37 573.977Z" fill="white"/>
</g>
<g style="mix-blend-mode:soft-light">
<path d="M139.265 423.55C135.544 423.55 132.514 426.424 132.514 429.955C132.514 433.486 135.544 436.36 139.265 436.36C142.41 436.36 145.045 434.298 145.786 431.517H228.712V428.393H145.786C145.045 425.612 142.41 423.55 139.265 423.55ZM139.265 433.236C137.355 433.236 135.807 431.767 135.807 429.955C135.807 428.143 137.355 426.674 139.265 426.674C141.175 426.674 142.723 428.143 142.723 429.955C142.723 431.767 141.175 433.236 139.265 433.236Z" fill="white"/>
</g>
<g style="mix-blend-mode:soft-light">
<path d="M228.712 402.023H174.965C174.224 399.242 171.589 397.18 168.444 397.18C164.722 397.18 161.692 400.054 161.692 403.585C161.692 407.115 164.722 409.99 168.444 409.99C171.589 409.99 174.224 407.928 174.965 405.147H228.712V402.023ZM168.427 406.865C166.517 406.865 164.969 405.397 164.969 403.585C164.969 401.773 166.517 400.304 168.427 400.304C170.337 400.304 171.885 401.773 171.885 403.585C171.885 405.397 170.337 406.865 168.427 406.865Z" fill="white"/>
</g>
<g style="mix-blend-mode:soft-light">
<path d="M228.712 375.651H145.786C145.045 372.871 142.41 370.809 139.265 370.809C135.544 370.809 132.514 373.683 132.514 377.214C132.514 380.744 135.544 383.619 139.265 383.619C142.41 383.619 145.045 381.557 145.786 378.776H228.712V375.651ZM139.265 380.494C137.355 380.494 135.807 379.026 135.807 377.214C135.807 375.402 137.355 373.933 139.265 373.933C141.175 373.933 142.723 375.402 142.723 377.214C142.723 379.026 141.175 380.494 139.265 380.494Z" fill="white"/>
</g>
<g style="mix-blend-mode:soft-light">
<path d="M228.712 349.281H174.965C174.224 346.501 171.589 344.438 168.444 344.438C164.722 344.438 161.692 347.313 161.692 350.844C161.692 354.374 164.722 357.249 168.444 357.249C171.589 357.249 174.224 355.187 174.965 352.406H228.712V349.281ZM168.427 354.124C166.517 354.124 164.969 352.656 164.969 350.844C164.969 349.031 166.517 347.563 168.427 347.563C170.337 347.563 171.885 349.031 171.885 350.844C171.885 352.656 170.337 354.124 168.427 354.124Z" fill="white"/>
</g>
<g style="mix-blend-mode:soft-light">
<path d="M228.712 322.911H145.786C145.045 320.13 142.41 318.068 139.265 318.068C135.544 318.068 132.514 320.943 132.514 324.473C132.514 328.004 135.544 330.879 139.265 330.879C142.41 330.879 145.045 328.816 145.786 326.036H228.712V322.911ZM139.265 327.754C137.355 327.754 135.807 326.286 135.807 324.473C135.807 322.661 137.355 321.193 139.265 321.193C141.175 321.193 142.723 322.661 142.723 324.473C142.723 326.286 141.175 327.754 139.265 327.754Z" fill="white"/>
</g>
<g style="mix-blend-mode:soft-light">
<path d="M228.712 296.557H174.965C174.224 293.776 171.589 291.714 168.444 291.714C164.722 291.714 161.692 294.588 161.692 298.119C161.692 301.65 164.722 304.524 168.444 304.524C171.589 304.524 174.224 302.462 174.965 299.681H228.712V296.557ZM168.427 301.4C166.517 301.4 164.969 299.931 164.969 298.119C164.969 296.307 166.517 294.838 168.427 294.838C170.337 294.838 171.885 296.307 171.885 298.119C171.885 299.931 170.337 301.4 168.427 301.4Z" fill="white"/>
</g>
<g style="mix-blend-mode:soft-light">
<path d="M228.712 270.187H145.786C145.045 267.406 142.41 265.344 139.265 265.344C135.544 265.344 132.514 268.218 132.514 271.749C132.514 275.279 135.544 278.154 139.265 278.154C142.41 278.154 145.045 276.092 145.786 273.311H228.712V270.187ZM139.265 275.03C137.355 275.03 135.807 273.561 135.807 271.749C135.807 269.937 137.355 268.468 139.265 268.468C141.175 268.468 142.723 269.937 142.723 271.749C142.723 273.561 141.175 275.03 139.265 275.03Z" fill="white"/>
</g>
<g style="mix-blend-mode:soft-light">
<path d="M513.305 431.517H596.214C596.955 434.298 599.59 436.36 602.735 436.36C606.457 436.36 609.486 433.486 609.486 429.955C609.486 426.424 606.457 423.55 602.735 423.55C599.59 423.55 596.955 425.612 596.214 428.393H513.305V431.517ZM602.735 426.674C604.645 426.674 606.193 428.143 606.193 429.955C606.193 431.767 604.645 433.236 602.735 433.236C600.825 433.236 599.277 431.767 599.277 429.955C599.277 428.143 600.825 426.674 602.735 426.674Z" fill="white"/>
</g>
<g style="mix-blend-mode:soft-light">
<path d="M573.573 409.99C577.294 409.99 580.324 407.115 580.324 403.585C580.324 400.054 577.294 397.18 573.573 397.18C570.428 397.18 567.793 399.242 567.052 402.023H513.305V405.147H567.052C567.793 407.928 570.428 409.99 573.573 409.99ZM573.573 400.304C575.483 400.304 577.031 401.773 577.031 403.585C577.031 405.397 575.483 406.865 573.573 406.865C571.663 406.865 570.115 405.397 570.115 403.585C570.115 401.773 571.663 400.304 573.573 400.304Z" fill="white"/>
</g>
<g style="mix-blend-mode:soft-light">
<path d="M602.735 370.809C599.59 370.809 596.955 372.871 596.214 375.651H513.305V378.776H596.214C596.955 381.557 599.59 383.619 602.735 383.619C606.457 383.619 609.486 380.744 609.486 377.214C609.486 373.683 606.457 370.809 602.735 370.809ZM602.735 380.494C600.825 380.494 599.277 379.026 599.277 377.214C599.277 375.402 600.825 373.933 602.735 373.933C604.645 373.933 606.193 375.402 606.193 377.214C606.193 379.026 604.645 380.494 602.735 380.494Z" fill="white"/>
</g>
<g style="mix-blend-mode:soft-light">
<path d="M573.573 357.249C577.294 357.249 580.324 354.374 580.324 350.844C580.324 347.313 577.294 344.438 573.573 344.438C570.428 344.438 567.793 346.501 567.052 349.281H513.305V352.406H567.052C567.793 355.187 570.428 357.249 573.573 357.249ZM573.573 347.563C575.483 347.563 577.031 349.031 577.031 350.844C577.031 352.656 575.483 354.124 573.573 354.124C571.663 354.124 570.115 352.656 570.115 350.844C570.115 349.031 571.663 347.563 573.573 347.563Z" fill="white"/>
</g>
<g style="mix-blend-mode:soft-light">
<path d="M602.735 318.068C599.59 318.068 596.955 320.13 596.214 322.911H513.305V326.036H596.214C596.955 328.816 599.59 330.879 602.735 330.879C606.457 330.879 609.486 328.004 609.486 324.473C609.486 320.943 606.457 318.068 602.735 318.068ZM602.735 327.754C600.825 327.754 599.277 326.286 599.277 324.473C599.277 322.661 600.825 321.193 602.735 321.193C604.645 321.193 606.193 322.661 606.193 324.473C606.193 326.286 604.645 327.754 602.735 327.754Z" fill="white"/>
</g>
<g style="mix-blend-mode:soft-light">
<path d="M573.573 291.714C570.428 291.714 567.793 293.776 567.052 296.557H513.305V299.681H567.052C567.793 302.462 570.428 304.524 573.573 304.524C577.294 304.524 580.324 301.65 580.324 298.119C580.324 294.588 577.294 291.714 573.573 291.714ZM573.573 301.4C571.663 301.4 570.115 299.931 570.115 298.119C570.115 296.307 571.663 294.838 573.573 294.838C575.483 294.838 577.031 296.307 577.031 298.119C577.031 299.931 575.483 301.4 573.573 301.4Z" fill="white"/>
</g>
<g style="mix-blend-mode:soft-light">
<path d="M596.214 270.187H513.305V273.311H596.214C596.955 276.092 599.59 278.154 602.735 278.154C606.457 278.154 609.486 275.279 609.486 271.749C609.486 268.218 606.457 265.344 602.735 265.344C599.59 265.344 596.955 267.406 596.214 270.187ZM602.735 268.468C604.645 268.468 606.193 269.937 606.193 271.749C606.193 273.561 604.645 275.03 602.735 275.03C600.825 275.03 599.277 273.561 599.277 271.749C599.277 269.937 600.825 268.468 602.735 268.468Z" fill="white"/>
</g>
<g style="mix-blend-mode:soft-light">
<path d="M538.779 86.3596V132.57C535.947 133.273 533.839 135.695 533.839 138.6C533.839 142.053 536.786 144.849 540.426 144.849C544.065 144.849 547.012 142.053 547.012 138.6C547.012 135.695 544.904 133.273 542.072 132.57V87.6563L571.119 60.0987L606.259 93.4365V125.853C603.427 126.556 601.319 128.977 601.319 131.883C601.319 135.335 604.267 138.132 607.906 138.132C611.545 138.132 614.493 135.335 614.493 131.883C614.493 128.977 612.385 126.556 609.553 125.853V92.1555L572.766 57.2554V0H569.473V57.2398L538.779 86.3596Z" fill="white"/>
</g>
<g style="mix-blend-mode:soft-light">
<path d="M656.401 153.738H586.862L574.775 142.272V116.542C577.608 115.839 579.715 113.417 579.715 110.512C579.715 107.059 576.768 104.263 573.129 104.263C569.49 104.263 566.542 107.059 566.542 110.512C566.542 113.417 568.65 115.839 571.482 116.542V143.568L585.495 156.863H653.107L617.473 190.669H568.996C568.255 187.982 565.702 185.983 562.639 185.983C559 185.983 556.053 188.779 556.053 192.231C556.053 195.684 559 198.48 562.639 198.48C565.702 198.48 568.255 196.481 568.996 193.794H618.824L657.751 156.863H741.484V153.738H656.384H656.401Z" fill="white"/>
</g>
<g style="mix-blend-mode:soft-light">
<path d="M674.546 59.7549V85.3441C671.714 86.0471 669.606 88.4685 669.606 91.3743C669.606 94.8268 672.554 97.6231 676.193 97.6231C679.832 97.6231 682.78 94.8268 682.78 91.3743C682.78 88.4685 680.672 86.0471 677.84 85.3441V62.8793H741.5V59.7549H674.546Z" fill="white"/>
</g>
<g style="mix-blend-mode:soft-light">
<path d="M70.895 91.3741V117.698C68.0627 118.401 65.955 120.822 65.955 123.728C65.955 127.18 68.9025 129.977 72.5417 129.977C76.1808 129.977 79.1283 127.18 79.1283 123.728C79.1283 120.822 77.0206 118.401 74.1883 117.698V92.9364H146.592L168.394 113.62C167.818 114.542 167.456 115.62 167.456 116.776C167.456 120.228 170.403 123.025 174.042 123.025C177.681 123.025 180.629 120.228 180.629 116.776C180.629 113.323 177.681 110.527 174.042 110.527C172.824 110.527 171.687 110.855 170.716 111.417L147.959 89.8275H74.1883V51.2094H146.592L169.086 72.5494C168.509 73.4867 168.147 74.549 168.147 75.705C168.147 79.1576 171.095 81.9539 174.734 81.9539C178.373 81.9539 181.32 79.1576 181.32 75.705C181.32 72.2525 178.373 69.4562 174.734 69.4562C173.515 69.4562 172.379 69.7842 171.408 70.3466L147.943 48.085H0.5V51.2094H70.895V91.3898V91.3741Z" fill="white"/>
</g>
<g style="mix-blend-mode:soft-light">
<path d="M87.9545 184.436H147.037C147.778 187.123 150.33 189.122 153.393 189.122C157.032 189.122 159.98 186.326 159.98 182.873C159.98 179.421 157.032 176.624 153.393 176.624C150.33 176.624 147.778 178.624 147.037 181.311H91.2478L120.048 153.988H167.703C168.444 156.675 170.996 158.675 174.059 158.675C177.698 158.675 180.645 155.878 180.645 152.426C180.645 148.973 177.698 146.177 174.059 146.177C170.996 146.177 168.444 148.176 167.703 150.863H118.698L86.6042 181.311H0.5V184.436H87.9545Z" fill="white"/>
</g>
<g style="mix-blend-mode:soft-light">
<path d="M133.781 529.281L152.767 511.268C153.738 511.815 154.875 512.159 156.093 512.159C159.732 512.159 162.68 509.363 162.68 505.91C162.68 502.458 159.732 499.661 156.093 499.661C152.454 499.661 149.506 502.458 149.506 505.91C149.506 507.066 149.852 508.128 150.445 509.066L130.504 527.984V589.505L172.346 629.201V702.984H175.639V627.904L133.797 588.208V529.281H133.781Z" fill="white"/>
</g>
<g style="mix-blend-mode:soft-light">
<path d="M70.895 563.743L111.617 602.377V630.107C108.785 630.81 106.677 633.231 106.677 636.137C106.677 639.589 109.625 642.386 113.264 642.386C116.903 642.386 119.85 639.589 119.85 636.137C119.85 633.231 117.743 630.81 114.91 630.107V601.08L74.1883 562.447V504.332H0.5V507.456H70.895V563.728V563.743Z" fill="white"/>
</g>
<g style="mix-blend-mode:soft-light">
<path d="M615.497 531.218H551.063L529.277 551.886C528.306 551.339 527.169 550.996 525.951 550.996C522.312 550.996 519.364 553.792 519.364 557.245C519.364 560.697 522.312 563.493 525.951 563.493C529.59 563.493 532.538 560.697 532.538 557.245C532.538 556.088 532.175 555.026 531.599 554.089L552.429 534.327H616.863L645.186 507.456H741.5V504.332H643.819L615.497 531.202V531.218Z" fill="white"/>
</g>
<g style="mix-blend-mode:soft-light">
<path d="M663.399 541.497C663.975 540.576 664.337 539.498 664.337 538.342C664.337 534.889 661.39 532.093 657.751 532.093C654.112 532.093 651.164 534.889 651.164 538.342C651.164 541.794 654.112 544.591 657.751 544.591C658.969 544.591 660.089 544.262 661.077 543.7L691.524 572.586H741.517V569.461H692.891L663.415 541.497H663.399Z" fill="white"/>
</g>
<g style="mix-blend-mode:soft-light">
<path d="M674.151 651.493V673.411C671.319 674.114 669.211 676.536 669.211 679.441C669.211 682.894 672.158 685.69 675.798 685.69C679.437 685.69 682.384 682.894 682.384 679.441C682.384 676.536 680.277 674.114 677.444 673.411V652.79L693.335 637.714H741.5V634.59H691.968L674.151 651.493Z" fill="white"/>
</g>
<g style="mix-blend-mode:soft-light">
<path d="M659.348 123.728C659.348 127.18 662.295 129.976 665.934 129.976C669.573 129.976 672.521 127.18 672.521 123.728C672.521 120.275 669.573 117.479 665.934 117.479C664.716 117.479 663.596 117.822 662.608 118.369L640.213 97.1229V57.5206L662.229 36.6337C663.201 37.1805 664.337 37.5241 665.555 37.5241C669.195 37.5241 672.142 34.7278 672.142 31.2753C672.142 27.8227 669.195 25.0264 665.555 25.0264C661.916 25.0264 658.969 27.8227 658.969 31.2753C658.969 32.4313 659.331 33.5092 659.907 34.4309L636.92 56.2396V98.4196L660.286 120.588C659.71 121.509 659.348 122.587 659.348 123.743V123.728Z" fill="white"/>
</g>
<g style="mix-blend-mode:soft-light">
<path d="M657.685 591.879C654.046 591.879 651.098 594.676 651.098 598.128C651.098 599.284 651.444 600.347 652.037 601.284L624.406 627.498L594.568 599.206V569.134C597.401 568.431 599.508 566.009 599.508 563.103C599.508 559.651 596.561 556.854 592.922 556.854C589.282 556.854 586.335 559.651 586.335 563.103C586.335 566.009 588.443 568.431 591.275 569.134V600.503L622.759 630.357V703H626.053V630.357L654.359 603.502C655.347 604.049 656.467 604.393 657.685 604.393C661.324 604.393 664.272 601.597 664.272 598.144C664.272 594.692 661.324 591.895 657.685 591.895V591.879Z" fill="white"/>
</g>
<g style="mix-blend-mode:soft-light">
<path d="M540.426 615.734C536.786 615.734 533.839 618.531 533.839 621.983C533.839 624.889 535.947 627.31 538.779 628.013V703H542.072V628.013C544.904 627.31 547.012 624.889 547.012 621.983C547.012 618.531 544.065 615.734 540.426 615.734Z" fill="white"/>
</g>
<g style="mix-blend-mode:soft-light">
<path d="M138.869 664.819C135.807 664.819 133.254 666.819 132.513 669.506H88.3168C87.5758 666.819 85.0235 664.819 81.9607 664.819C78.3216 664.819 75.374 667.616 75.374 671.068C75.374 674.521 78.3216 677.317 81.9607 677.317C85.0235 677.317 87.5758 675.317 88.3168 672.63H132.513C133.254 675.317 135.807 677.317 138.869 677.317C142.509 677.317 145.456 674.521 145.456 671.068C145.456 667.616 142.509 664.819 138.869 664.819Z" fill="white"/>
</g>
<g style="mix-blend-mode:soft-light">
<path d="M72.97 628.232C76.6091 628.232 79.5567 625.436 79.5567 621.983C79.5567 618.531 76.6091 615.734 72.97 615.734C69.3309 615.734 66.3833 618.531 66.3833 621.983C66.3833 623.139 66.7291 624.202 67.3219 625.139L46.8703 644.542L25.9906 624.733C26.5669 623.795 26.9292 622.733 26.9292 621.577C26.9292 618.125 23.9817 615.328 20.3425 615.328C16.7034 615.328 13.7559 618.125 13.7559 621.577C13.7559 625.03 16.7034 627.826 20.3425 627.826C21.5611 627.826 22.6973 627.498 23.6688 626.935L45.2401 647.401V702.984H48.5335V647.401L69.6767 627.342C70.6482 627.888 71.7844 628.232 73.0029 628.232H72.97Z" fill="white"/>
</g>
<g style="mix-blend-mode:soft-light">
<path d="M254.663 544.372C257.496 543.669 259.603 541.247 259.603 538.342C259.603 534.889 256.656 532.093 253.017 532.093C249.378 532.093 246.43 534.889 246.43 538.342C246.43 541.247 248.538 543.669 251.37 544.372V578.21L218.338 609.532V703H221.631V610.829L254.663 579.506V544.372Z" fill="white"/>
</g>
<g style="mix-blend-mode:soft-light">
<path d="M387.335 623.858C388.076 626.545 390.629 628.545 393.692 628.545C397.331 628.545 400.278 625.748 400.278 622.296C400.278 618.843 397.331 616.047 393.692 616.047C390.629 616.047 388.076 618.047 387.335 620.734H354.567L327.216 594.785H262.831L239.827 616.609C238.855 616.063 237.719 615.719 236.501 615.719C232.862 615.719 229.914 618.515 229.914 621.968C229.914 625.42 232.862 628.217 236.501 628.217C240.14 628.217 243.087 625.42 243.087 621.968C243.087 620.812 242.742 619.734 242.149 618.812L264.198 597.894H325.849L353.2 623.842H387.335V623.858Z" fill="white"/>
</g>
<g style="mix-blend-mode:soft-light">
<path d="M364.956 661.538H338.955C338.214 658.851 335.662 656.852 332.599 656.852C328.96 656.852 326.013 659.648 326.013 663.1C326.013 666.553 328.96 669.349 332.599 669.349C335.662 669.349 338.214 667.35 338.955 664.663H366.323L388.158 643.948H447.636V702.984H450.929V640.823H386.791L364.956 661.538Z" fill="white"/>
</g>
<g style="mix-blend-mode:soft-light">
<path d="M72.6899 254.361H109.312C110.053 257.048 112.605 259.048 115.668 259.048C119.307 259.048 122.255 256.251 122.255 252.799C122.255 249.346 119.307 246.55 115.668 246.55C112.605 246.55 110.053 248.55 109.312 251.237H77.3499L108.093 222.07H157.823C158.564 224.757 161.116 226.757 164.179 226.757C167.818 226.757 170.765 223.96 170.765 220.508C170.765 217.055 167.818 214.259 164.179 214.259C161.116 214.259 158.564 216.258 157.823 218.945H106.743L73.3979 250.58L44.1531 222.835H0.5V225.96H42.7535L72.6899 254.361Z" fill="white"/>
</g>
<g style="mix-blend-mode:soft-light">
<path d="M106.66 415.551V366.95C109.493 366.247 111.6 363.826 111.6 360.92C111.6 357.467 108.653 354.671 105.014 354.671C101.375 354.671 98.4271 357.467 98.4271 360.92C98.4271 363.826 100.535 366.247 103.367 366.95V414.27L77.6627 438.672V466.323C74.8304 467.026 72.7227 469.447 72.7227 472.353C72.7227 475.806 75.6702 478.602 79.3093 478.602C82.9485 478.602 85.896 475.806 85.896 472.353C85.896 469.447 83.7883 467.026 80.956 466.323V439.953L106.66 415.551Z" fill="white"/>
</g>
<g style="mix-blend-mode:soft-light">
<path d="M34.8989 461.496L47.1665 473.134C46.5902 474.056 46.2279 475.134 46.2279 476.29C46.2279 479.742 49.1755 482.539 52.8146 482.539C56.4537 482.539 59.4013 479.742 59.4013 476.29C59.4013 472.837 56.4537 470.041 52.8146 470.041C51.5961 470.041 50.4599 470.369 49.4883 470.931L38.1922 460.215V415.082H0.5V418.206H34.8989V461.511V461.496Z" fill="white"/>
</g>
<g style="mix-blend-mode:soft-light">
<path d="M124.708 471.9C125.68 472.447 126.816 472.791 128.034 472.791C131.673 472.791 134.621 469.994 134.621 466.542C134.621 463.089 131.673 460.293 128.034 460.293C124.395 460.293 121.448 463.089 121.448 466.542C121.448 467.698 121.793 468.776 122.386 469.698L99.4482 491.459H0.5V494.584H100.798L124.708 471.9Z" fill="white"/>
</g>
<g style="mix-blend-mode:soft-light">
<path d="M246.265 177.25C243.433 177.953 241.325 180.374 241.325 183.28C241.325 186.732 244.273 189.529 247.912 189.529C251.551 189.529 254.499 186.732 254.499 183.28C254.499 180.374 252.391 177.953 249.559 177.25V128.102L230.342 109.871V53.3968L253.906 75.7522H303.948C304.689 78.4392 307.241 80.4388 310.304 80.4388C313.943 80.4388 316.891 77.6424 316.891 74.1899C316.891 70.7374 313.943 67.941 310.304 67.941C307.241 67.941 304.689 69.9407 303.948 72.6277H255.273L230.342 48.9757V0H227.049V111.168L246.265 129.399V177.25Z" fill="white"/>
</g>
<g style="mix-blend-mode:soft-light">
<path d="M399.339 52.7718C399.916 51.8501 400.278 50.7721 400.278 49.6161C400.278 46.1636 397.33 43.3672 393.691 43.3672C390.052 43.3672 387.104 46.1636 387.104 49.6161C387.104 53.0686 390.052 55.865 393.691 55.865C394.91 55.865 396.046 55.5369 397.017 54.9745L416.152 73.1275H485.674L503.705 90.2339C503.129 91.1556 502.766 92.2335 502.766 93.3895C502.766 96.842 505.714 99.6384 509.353 99.6384C512.992 99.6384 515.94 96.842 515.94 93.3895C515.94 89.937 512.992 87.1407 509.353 87.1407C508.134 87.1407 507.015 87.4843 506.027 88.0311L487.024 70.0031H417.502L399.323 52.7561L399.339 52.7718Z" fill="white"/>
</g>
<g style="mix-blend-mode:soft-light">
<path d="M633.759 244.316C632.787 243.769 631.651 243.425 630.432 243.425C626.793 243.425 623.846 246.221 623.846 249.674C623.846 253.126 626.793 255.923 630.432 255.923C634.072 255.923 637.019 253.126 637.019 249.674C637.019 248.518 636.673 247.44 636.08 246.518L657.751 225.959H741.484V222.835H656.384L633.742 244.316H633.759Z" fill="white"/>
</g>
<g style="mix-blend-mode:soft-light">
<path d="M637.826 194.528L611.99 219.04C611.019 218.493 609.882 218.149 608.664 218.149C605.025 218.149 602.077 220.945 602.077 224.398C602.077 227.85 605.025 230.647 608.664 230.647C612.303 230.647 615.25 227.85 615.25 224.398C615.25 223.242 614.888 222.164 614.312 221.242L639.193 197.637H700.317L720.703 178.297C721.691 178.844 722.811 179.187 724.029 179.187C727.668 179.187 730.616 176.391 730.616 172.938C730.616 169.486 727.668 166.689 724.029 166.689C720.39 166.689 717.443 169.486 717.443 172.938C717.443 174.094 717.805 175.172 718.381 176.094L698.967 194.513H637.843L637.826 194.528Z" fill="white"/>
</g>
<g style="mix-blend-mode:soft-light">
<path d="M519.035 187.561L534.003 201.761C533.427 202.683 533.065 203.761 533.065 204.917C533.065 208.37 536.012 211.166 539.651 211.166C543.291 211.166 546.238 208.37 546.238 204.917C546.238 201.465 543.291 198.668 539.651 198.668C538.433 198.668 537.313 198.996 536.325 199.559L520.385 184.436H494.121V129.759C496.953 129.056 499.061 126.634 499.061 123.728C499.061 120.276 496.113 117.479 492.474 117.479C488.835 117.479 485.888 120.276 485.888 123.728C485.888 126.634 487.995 129.056 490.828 129.759V187.561H519.019H519.035Z" fill="white"/>
</g>
<g style="mix-blend-mode:soft-light">
<path d="M667.977 402.928L651.378 387.181C651.955 386.244 652.317 385.181 652.317 384.025C652.317 380.573 649.369 377.776 645.73 377.776C642.091 377.776 639.144 380.573 639.144 384.025C639.144 387.478 642.091 390.274 645.73 390.274C646.949 390.274 648.085 389.946 649.056 389.384L664.683 404.209V447.998H741.5V444.874H667.977V402.913V402.928Z" fill="white"/>
</g>
<g style="mix-blend-mode:soft-light">
<path d="M675.205 258.829C678.038 258.126 680.145 255.704 680.145 252.799C680.145 249.346 677.198 246.55 673.559 246.55C669.919 246.55 666.972 249.346 666.972 252.799C666.972 255.704 669.08 258.126 671.912 258.829V287.464L649.616 308.617C648.645 308.07 647.508 307.726 646.29 307.726C642.651 307.726 639.703 310.523 639.703 313.975C639.703 317.428 642.651 320.224 646.29 320.224C649.929 320.224 652.876 317.428 652.876 313.975C652.876 312.819 652.531 311.741 651.938 310.82L674.234 289.667H741.5V286.543H675.205V258.829Z" fill="white"/>
</g>
<g style="mix-blend-mode:soft-light">
<path d="M670.924 324.473C670.924 321.021 667.977 318.225 664.338 318.225C660.699 318.225 657.751 321.021 657.751 324.473C657.751 327.379 659.859 329.801 662.691 330.504V370.934L675.7 383.276C675.123 384.197 674.761 385.275 674.761 386.431C674.761 389.884 677.709 392.68 681.348 392.68C684.987 392.68 687.934 389.884 687.934 386.431C687.934 382.979 684.987 380.182 681.348 380.182C680.129 380.182 678.993 380.51 678.021 381.073L665.984 369.653V330.504C668.817 329.801 670.924 327.379 670.924 324.473Z" fill="white"/>
</g>
<g style="mix-blend-mode:soft-light">
<path d="M699.626 303.071C695.987 303.071 693.039 305.868 693.039 309.32C693.039 312.773 695.987 315.569 699.626 315.569C700.844 315.569 701.964 315.225 702.952 314.679L720.72 331.535V388.978L704.418 404.444C703.446 403.897 702.31 403.553 701.091 403.553C697.452 403.553 694.505 406.35 694.505 409.802C694.505 413.255 697.452 416.051 701.091 416.051C704.73 416.051 707.678 413.255 707.678 409.802C707.678 408.646 707.332 407.568 706.739 406.647L723.996 390.275V330.238L705.257 312.476C705.834 311.554 706.196 310.476 706.196 309.32C706.196 305.868 703.248 303.071 699.609 303.071H699.626Z" fill="white"/>
</g>
<g style="mix-blend-mode:soft-light">
<path d="M724.951 488.882C728.59 488.882 731.538 486.085 731.538 482.633C731.538 479.18 728.59 476.384 724.951 476.384C723.732 476.384 722.596 476.712 721.625 477.274L709.538 465.808H638.748L608.696 494.318C607.708 493.771 606.588 493.428 605.37 493.428C601.731 493.428 598.783 496.224 598.783 499.677C598.783 503.129 601.731 505.925 605.37 505.925C609.009 505.925 611.957 503.129 611.957 499.677C611.957 498.521 611.594 497.443 611.018 496.521L640.098 468.932H708.155L719.286 479.493C718.71 480.414 718.348 481.492 718.348 482.648C718.348 486.101 721.295 488.897 724.934 488.897L724.951 488.882Z" fill="white"/>
</g>
<g style="mix-blend-mode:soft-light">
<path d="M516.071 505.91C519.134 505.91 521.686 503.91 522.427 501.223H574.264L603.608 473.385C604.596 473.931 605.716 474.275 606.934 474.275C610.573 474.275 613.521 471.479 613.521 468.026C613.521 464.574 610.573 461.777 606.934 461.777C603.295 461.777 600.347 464.574 600.347 468.026C600.347 469.182 600.693 470.26 601.286 471.182L572.897 498.115H522.427C521.686 495.428 519.134 493.428 516.071 493.428C512.432 493.428 509.484 496.224 509.484 499.677C509.484 503.129 512.432 505.926 516.071 505.926V505.91Z" fill="white"/>
</g>
<g style="mix-blend-mode:soft-light">
<path d="M605.37 681.77C604.151 681.77 603.015 682.098 602.044 682.66L590.863 672.053V640.621L574.89 625.467C575.466 624.545 575.829 623.467 575.829 622.311C575.829 618.859 572.881 616.062 569.242 616.062C565.603 616.062 562.655 618.859 562.655 622.311C562.655 625.764 565.603 628.56 569.242 628.56C570.46 628.56 571.597 628.232 572.568 627.67L587.586 641.917V673.349L599.738 684.878C599.162 685.8 598.8 686.878 598.8 688.034C598.8 691.487 601.747 694.283 605.386 694.283C609.025 694.283 611.973 691.487 611.973 688.034C611.973 684.582 609.025 681.785 605.386 681.785L605.37 681.77Z" fill="white"/>
</g>
<g style="mix-blend-mode:soft-light">
<path d="M535.14 591.239C538.779 591.239 541.726 588.443 541.726 584.99C541.726 581.538 538.779 578.741 535.14 578.741C531.501 578.741 528.553 581.538 528.553 584.99C528.553 586.146 528.899 587.224 529.492 588.146L502.635 613.626V646.792L482.348 627.545V591.005C485.18 590.302 487.288 587.88 487.288 584.974C487.288 581.522 484.34 578.726 480.701 578.726C477.062 578.726 474.114 581.522 474.114 584.974C474.114 587.88 476.222 590.302 479.054 591.005V628.842L502.635 651.213V703H505.928V614.922L531.83 590.349C532.801 590.895 533.938 591.239 535.156 591.239H535.14Z" fill="white"/>
</g>
<g style="mix-blend-mode:soft-light">
<path d="M426.591 659.148C423.528 659.148 420.976 661.148 420.235 663.835H391.698L370.325 684.113H338.955C338.214 681.426 335.662 679.426 332.599 679.426C328.96 679.426 326.013 682.222 326.013 685.675C326.013 689.127 328.96 691.924 332.599 691.924C335.662 691.924 338.214 689.924 338.955 687.237H371.691L393.065 666.96H420.235C420.976 669.647 423.528 671.646 426.591 671.646C430.23 671.646 433.178 668.85 433.178 665.397C433.178 661.945 430.23 659.148 426.591 659.148Z" fill="white"/>
</g>
<g style="mix-blend-mode:soft-light">
<path d="M311.951 663.538V634.574H267.82V702.984H271.114V637.699H308.658V663.538C305.825 664.241 303.718 666.662 303.718 669.568C303.718 673.021 306.665 675.817 310.304 675.817C313.943 675.817 316.891 673.021 316.891 669.568C316.891 666.662 314.783 664.241 311.951 663.538Z" fill="white"/>
</g>
<g style="mix-blend-mode:soft-light">
<path d="M199.105 610.985C197.886 610.985 196.75 611.313 195.778 611.876L169.102 586.568V550.621C171.935 549.918 174.042 547.496 174.042 544.591C174.042 541.138 171.095 538.342 167.456 538.342C163.817 538.342 160.869 541.138 160.869 544.591C160.869 547.496 162.977 549.918 165.809 550.621V587.864L193.457 614.094C192.88 615.016 192.518 616.094 192.518 617.25C192.518 620.702 195.466 623.498 199.105 623.498C202.744 623.498 205.691 620.702 205.691 617.25C205.691 613.797 202.744 611.001 199.105 611.001V610.985Z" fill="white"/>
</g>
<g style="mix-blend-mode:soft-light">
<path d="M60.4718 607.298C64.111 607.298 67.0585 604.501 67.0585 601.049C67.0585 597.596 64.111 594.8 60.4718 594.8C59.2533 594.8 58.1171 595.128 57.1456 595.691L35.2285 574.897V531.874C38.0607 531.171 40.1685 528.749 40.1685 525.844C40.1685 522.391 37.2209 519.595 33.5818 519.595C29.9427 519.595 26.9951 522.391 26.9951 525.844C26.9951 528.749 29.1029 531.171 31.9351 531.874V576.178L54.8073 597.878C54.231 598.799 53.8687 599.877 53.8687 601.033C53.8687 604.486 56.8162 607.282 60.4554 607.282L60.4718 607.298Z" fill="white"/>
</g>
<g style="mix-blend-mode:soft-light">
<path d="M59.3515 376.542C62.9907 376.542 65.9382 373.746 65.9382 370.294C65.9382 366.841 62.9907 364.045 59.3515 364.045C58.133 364.045 56.9968 364.373 56.0253 364.935L40.4972 350.203V271.546L19.3705 251.502C19.9468 250.581 20.3091 249.503 20.3091 248.347C20.3091 244.894 17.3615 242.098 13.7224 242.098C10.0833 242.098 7.13574 244.894 7.13574 248.347C7.13574 251.799 10.0833 254.595 13.7224 254.595C14.9409 254.595 16.0771 254.252 17.0487 253.705L37.2039 272.827V351.484L53.7035 367.138C53.1271 368.06 52.7649 369.138 52.7649 370.294C52.7649 373.746 55.7124 376.542 59.3515 376.542Z" fill="white"/>
</g>
<g style="mix-blend-mode:soft-light">
<path d="M88.5475 335.566C92.1867 335.566 95.1342 332.769 95.1342 329.317C95.1342 325.864 92.1867 323.068 88.5475 323.068C85.4847 323.068 82.9324 325.068 82.1914 327.755H59.2204V260.72L39.2299 241.754C39.8062 240.817 40.1685 239.755 40.1685 238.598C40.1685 235.146 37.2209 232.35 33.5818 232.35C29.9427 232.35 26.9951 235.146 26.9951 238.598C26.9951 242.051 29.9427 244.847 33.5818 244.847C34.8003 244.847 35.9365 244.519 36.9081 243.957L55.9435 262.016V330.879H82.2078C82.9488 333.566 85.5012 335.566 88.564 335.566H88.5475Z" fill="white"/>
</g>
<g style="mix-blend-mode:soft-light">
<path d="M81.9609 309.32C81.9609 312.773 84.9085 315.569 88.5476 315.569C92.1867 315.569 95.1343 312.773 95.1343 309.32C95.1343 306.415 93.0265 303.993 90.1943 303.29V272.936C93.0265 272.233 95.1343 269.812 95.1343 266.906C95.1343 263.454 92.1867 260.657 88.5476 260.657C84.9085 260.657 81.9609 263.454 81.9609 266.906C81.9609 269.812 84.0687 272.233 86.9009 272.936V303.29C84.0687 303.993 81.9609 306.415 81.9609 309.32Z" fill="white"/>
</g>
<g style="mix-blend-mode:soft-light">
<path d="M132.909 121.463H106.48C105.739 118.776 103.187 116.776 100.124 116.776C96.4846 116.776 93.5371 119.573 93.5371 123.025C93.5371 126.478 96.4846 129.274 100.124 129.274C103.187 129.274 105.739 127.275 106.48 124.587H132.909C133.65 127.275 136.202 129.274 139.265 129.274C142.904 129.274 145.852 126.478 145.852 123.025C145.852 119.573 142.904 116.776 139.265 116.776C136.202 116.776 133.65 118.776 132.909 121.463Z" fill="white"/>
</g>
<g style="mix-blend-mode:soft-light">
<path d="M45.1742 163.502C45.1742 166.954 48.1218 169.751 51.7609 169.751C55.4 169.751 58.3476 166.954 58.3476 163.502C58.3476 160.596 56.2398 158.175 53.4076 157.472V133.46L28.5429 109.871V75.4548C31.3752 74.7518 33.4829 72.3304 33.4829 69.4247C33.4829 65.9722 30.5354 63.1758 26.8962 63.1758C23.2571 63.1758 20.3096 65.9722 20.3096 69.4247C20.3096 72.3304 22.4173 74.7518 25.2496 75.4548V111.167L50.1142 134.757V157.487C47.282 158.19 45.1742 160.612 45.1742 163.517V163.502Z" fill="white"/>
</g>
<g style="mix-blend-mode:soft-light">
<path d="M64.7205 36.1657C67.7833 36.1657 70.3356 34.1661 71.0766 31.4791H159.305L184.285 55.178C183.709 56.0997 183.346 57.1776 183.346 58.3337C183.346 61.7862 186.294 64.5826 189.933 64.5826C193.572 64.5826 196.52 61.7862 196.52 58.3337C196.52 54.8812 193.572 52.0848 189.933 52.0848C188.714 52.0848 187.578 52.4129 186.607 52.9753L160.672 28.3703H71.0766C70.3356 25.6832 67.7833 23.6836 64.7205 23.6836C61.0813 23.6836 58.1338 26.48 58.1338 29.9325C58.1338 33.385 61.0813 36.1814 64.7205 36.1814V36.1657Z" fill="white"/>
</g>
<g style="mix-blend-mode:soft-light">
<path d="M253.016 31.2449C254.235 31.2449 255.371 30.9168 256.343 30.3544L277.288 50.2259H347.634L362.174 64.0203C361.598 64.942 361.235 66.0199 361.235 67.176C361.235 70.6285 364.183 73.4249 367.822 73.4249C371.461 73.4249 374.409 70.6285 374.409 67.176C374.409 63.7235 371.461 60.9271 367.822 60.9271C366.603 60.9271 365.467 61.2708 364.496 61.8175L348.984 47.117H278.638L258.664 28.1673C259.241 27.2456 259.603 26.1676 259.603 25.0116C259.603 21.5591 256.655 18.7627 253.016 18.7627C249.377 18.7627 246.43 21.5591 246.43 25.0116C246.43 28.4641 249.377 31.2605 253.016 31.2605V31.2449Z" fill="white"/>
</g>
<g style="mix-blend-mode:soft-light">
<path d="M332.599 31.2444C335.662 31.2444 338.214 29.2448 338.955 26.5578H474.18V0H470.886V23.4333H338.955C338.214 20.7463 335.662 18.7467 332.599 18.7467C328.96 18.7467 326.013 21.543 326.013 24.9956C326.013 28.4481 328.96 31.2444 332.599 31.2444Z" fill="white"/>
</g>
<g style="mix-blend-mode:soft-light">
<path d="M498.797 57.3336C502.436 57.3336 505.384 54.5372 505.384 51.0847C505.384 49.9286 505.038 48.8507 504.445 47.929L519.694 33.4472L534.843 47.8196C534.267 48.757 533.904 49.8193 533.904 50.9753C533.904 54.4278 536.852 57.2242 540.491 57.2242C544.13 57.2242 547.078 54.4278 547.078 50.9753C547.078 47.5228 544.13 44.7264 540.491 44.7264C539.272 44.7264 538.153 45.0545 537.165 45.6169L521.324 30.5883V0H518.03V30.6039L502.091 45.7262C501.119 45.1795 499.983 44.8358 498.764 44.8358C495.125 44.8358 492.178 47.6322 492.178 51.0847C492.178 54.5372 495.125 57.3336 498.764 57.3336H498.797Z" fill="white"/>
</g>
</g>
<defs>
<clipPath id="clip0_836_237">
<rect width="741" height="703" fill="white" transform="translate(0.5)"/>
</clipPath>
</defs>
</svg>
